<svg xmlns="http://www.w3.org/2000/svg" viewBox="0 0 800 600" width="800" height="600">
  <rect width="800" height="600" fill="#f3f4f6" />
  <g transform="translate(100, 150)">
    <!-- Van body -->
    <rect x="50" y="100" width="550" height="200" rx="20" fill="#2563eb" />
    <rect x="50" y="200" width="550" height="100" fill="#2563eb" />
    <!-- Van front/cab -->
    <path d="M50,300 L50,150 C50,120 80,100 110,100 L150,100 L150,300 Z" fill="#1d4ed8" />
    <!-- Windows -->
    <rect x="70" y="130" width="60" height="70" rx="5" fill="#dbeafe" />
    <rect x="200" y="130" width="80" height="70" rx="5" fill="#dbeafe" />
    <rect x="350" y="130" width="80" height="70" rx="5" fill="#dbeafe" />
    <rect x="500" y="130" width="80" height="70" rx="5" fill="#dbeafe" />
    <!-- Wheels -->
    <circle cx="120" cy="320" r="40" fill="#1f2937" />
    <circle cx="120" cy="320" r="25" fill="#6b7280" />
    <circle cx="450" cy="320" r="40" fill="#1f2937" />
    <circle cx="450" cy="320" r="25" fill="#6b7280" />
    <!-- Front details -->
    <rect x="60" y="220" width="30" height="20" rx="5" fill="#f3f4f6" /> <!-- Headlight -->
    <rect x="65" y="250" width="70" height="10" rx="2" fill="#f3f4f6" /> <!-- Bumper -->
  </g>
  <text x="400" y="520" font-family="Arial" font-size="24" text-anchor="middle" fill="#374151">Mercedes Sprinter Skåpbil</text>
</svg>