<svg xmlns="http://www.w3.org/2000/svg" viewBox="0 0 800 600" width="800" height="600">
  <rect width="800" height="600" fill="#f3f4f6" />
  <g transform="translate(150, 100)">
    <!-- Stacked Boxes -->
    <!-- Bottom large box -->
    <g>
      <rect x="100" y="300" width="400" height="150" fill="#dc2626" stroke="#991b1b" stroke-width="3" />
      <rect x="100" y="300" width="400" height="20" fill="#991b1b" />
      <line x1="300" y1="300" x2="300" y2="450" stroke="#991b1b" stroke-width="2" />
      <text x="200" y="390" font-family="Arial" font-size="24" fill="white">FLYTTLÅDA</text>
    </g>
    
    <!-- Middle boxes -->
    <g transform="translate(50, -80)">
      <rect x="100" y="300" width="200" height="80" fill="#2563eb" stroke="#1d4ed8" stroke-width="3" />
      <rect x="100" y="300" width="200" height="15" fill="#1d4ed8" />
      <text x="150" y="345" font-family="Arial" font-size="18" fill="white">BHS</text>
    </g>
    
    <g transform="translate(270, -80)">
      <rect x="100" y="300" width="130" height="80" fill="#0891b2" stroke="#0e7490" stroke-width="3" />
      <rect x="100" y="300" width="130" height="15" fill="#0e7490" />
      <text x="130" y="345" font-family="Arial" font-size="16" fill="white">Flytt</text>
    </g>
    
    <!-- Top small box -->
    <g transform="translate(150, -160)">
      <rect x="100" y="300" width="150" height="80" fill="#4f46e5" stroke="#4338ca" stroke-width="3" />
      <rect x="100" y="300" width="150" height="15" fill="#4338ca" />
      <text x="135" y="345" font-family="Arial" font-size="16" fill="white">Stockholm</text>
    </g>
    
    <!-- Tape and packaging materials -->
    <g transform="translate(-30, 50)">
      <circle cx="100" cy="300" r="40" fill="#fbbf24" stroke="#d97706" stroke-width="2" />
      <circle cx="100" cy="300" r="15" fill="#f3f4f6" />
      <text x="70" y="380" font-family="Arial" font-size="14" fill="#374151">Tejp</text>
    </g>
  </g>
  <text x="400" y="520" font-family="Arial" font-size="24" text-anchor="middle" fill="#374151">Flyttlådor och packmaterial</text>
</svg>